<svg width="40" height="40" xmlns="http://www.w3.org/2000/svg">
  <ellipse ry="18" rx="18" id="svg_1" cy="20" cx="20.062495" stroke="#000" fill="#FF4F06"/>
  <path id="svg_3" d="m17.43753,15.80669" opacity="0.5" stroke="#000" fill="#8B4D4B"/>
  <ellipse fill="#FFAF44" stroke="#000" stroke-width="0.75" cx="25.996666" cy="22.683078" id="svg_2" rx="4.528733" ry="4.528733"/>
  <path fill="#C7310c" stroke="#000" stroke-width="0.5" d="m11.348556,24.650735c-0.187396,0 -0.062464,0.12493 12.99278,0c13.055244,-0.12493 13.367571,-0.12493 12.930314,-0.12493c-0.437257,0 -0.874514,4.310103 -5.621875,8.87007c-4.747361,4.559967 -12.493058,4.809828 -12.680453,4.12271c-0.187395,-0.687118 -1.311773,-4.622432 -2.498613,-6.621321c-1.18684,-1.998889 -4.934757,-6.246529 -5.122153,-6.246529z" id="svg_7"/>
  <path fill="#D38344" stroke="#000" stroke-width="0.5" d="m2.22862,19.46611c9.86951,3.24821 15.74126,11.36869 16.61577,18.30234c-10.49416,-0.99944 -16.86563,-10.49418 -16.61577,-18.30234z" id="svg_5"/>
  <line fill="none" stroke="#000" x1="31.774705" y1="22.651846" x2="36.08662" y2="22.651846" id="svg_8"/>
  <line fill="none" x1="20.218627" y1="22.714311" x2="16.407778" y2="22.714311" id="svg_9" stroke="#000"/>
  <line fill="none" x1="25.902968" y1="17.092435" x2="25.902968" y2="13.404753" id="svg_12" stroke="#000"/>
  <line fill="none" x1="30.338003" y1="18.654067" x2="33.002695" y2="15.989375" id="svg_13" stroke="#000"/>
  <line fill="none" x1="21.655328" y1="18.529137" x2="19.060983" y2="15.934792" id="svg_14" stroke="#000"/>
  <line fill="none" stroke="#000" x1="31.774705" y1="19.840908" x2="33.773594" y2="19.840908" id="svg_20" transform="rotate(157.5 32.774147033691406,19.84090805053711) "/>
  <line fill="none" stroke="#000" x1="28.151718" y1="15.905595" x2="30.150607" y2="15.905595" id="svg_21" transform="rotate(112.5 29.151163101196293,15.905594825744629) "/>
  <line fill="none" stroke="#000" x1="22.03012" y1="16.342852" x2="24.029009" y2="16.342852" id="svg_22" transform="rotate(67.5 23.029563903808594,16.342851638793945) "/>
  <line fill="none" stroke="#000" x1="18.344668" y1="19.965838" x2="20.343558" y2="19.965838" id="svg_24" transform="rotate(22.5 19.344112396240227,19.965837478637695) "/>
  <line fill="none" stroke="#000" stroke-width="0.7" x1="18.282203" y1="26.274832" x2="33.711255" y2="26.274832" id="svg_26"/>
  <line fill="none" stroke-width="0.7" x1="20.655884" y1="27.586603" x2="28.089253" y2="27.586603" id="svg_27" stroke="#000"/>
  <line fill="none" stroke="#000" stroke-width="0.7" x1="22.842169" y1="28.835909" x2="31.969799" y2="28.835909" id="svg_28"/>
  <line fill="none" stroke="#000" stroke-width="0.7" x1="24.653662" y1="30.14768" x2="31.095163" y2="30.14768" id="svg_29"/>
  <line fill="none" stroke="#000" stroke-width="0.7" x1="26.215294" y1="31.396986" x2="30.038456" y2="31.396986" id="svg_30"/>
  <line fill="none" stroke="#000" stroke-width="0.7" x1="29.775816" y1="27.524138" x2="32.586754" y2="27.524138" id="svg_31"/>
  <path fill="#6d97ab" stroke="#000" stroke-width="0.5" opacity="0.5" d="m17.157828,12.282608" id="svg_40"/>
  <g id="svg_48" transform="rotate(30.946992874145508 16.777734756469723,16.682825088500977) " stroke="null">
   <path fill="#619E73" stroke-width="0.5" d="m19.18226,17.176599c-0.199642,0.085541 -4.791405,0.16039 -4.845852,0.128312c-0.054448,-0.032078 0.462806,-1.218967 2.504598,-1.251045c2.041792,-0.032078 2.540897,1.037191 2.341255,1.122732l-0.000001,0.000001z" id="svg_43" stroke="#000"/>
   <line fill="none" stroke-width="0.5" x1="16.813782" y1="17.169939" x2="16.786558" y2="16.489342" id="svg_44" stroke="#000"/>
   <line fill="none" stroke-width="0.5" x1="17.84829" y1="17.169939" x2="17.84829" y2="16.761581" id="svg_45" stroke="#000"/>
   <line fill="none" stroke-width="0.5" x1="15.697603" y1="17.251611" x2="15.697603" y2="16.761581" id="svg_46" stroke="#000"/>
  </g>
  <g id="svg_53" transform="rotate(77.25847625732422 13.980134010314941,13.226062774658205) " stroke="null">
   <path fill="#619E73" stroke-width="0.5" d="m16.418139,13.72671c-0.202422,0.086733 -4.858121,0.162624 -4.913327,0.130099c-0.055206,-0.032525 0.46925,-1.23594 2.539472,-1.268464c2.070222,-0.032525 2.576276,1.051633 2.373855,1.138365z" id="svg_49" stroke="#000"/>
   <line fill="none" stroke-width="0.5" x1="14.016682" y1="13.719957" x2="13.989079" y2="13.029883" id="svg_50" stroke="#000"/>
   <line fill="none" stroke-width="0.5" x1="15.065594" y1="13.719957" x2="15.065594" y2="13.305913" id="svg_51" stroke="#000"/>
   <line fill="none" stroke-width="0.5" x1="12.88496" y1="13.802766" x2="12.88496" y2="13.305913" id="svg_52" stroke="#000"/>
  </g>
  <g id="svg_58" stroke="null">
   <path fill="#619E73" stroke-width="0.5" d="m13.758076,15.729966c-0.279571,0.119789 -6.70969,0.224604 -6.785936,0.179683c-0.076246,-0.044921 0.648095,-1.706992 3.507338,-1.751912c2.859243,-0.044921 3.558169,1.45244 3.278599,1.572229l-0.000001,0z" id="svg_54" stroke="#000"/>
   <line fill="none" stroke-width="0.5" x1="10.441354" y1="15.72064" x2="10.403231" y2="14.767559" id="svg_55" stroke="#000"/>
   <line fill="none" stroke-width="0.5" x1="11.890037" y1="15.72064" x2="11.890037" y2="15.148791" id="svg_56" stroke="#000"/>
   <line fill="none" stroke-width="0.5" x1="8.878302" y1="15.835009" x2="8.878302" y2="15.148791" id="svg_57" stroke="#000"/>
  </g>
  <g id="svg_63" transform="rotate(100.1610107421875 14.177595138549805,18.85135459899902) " stroke="null">
   <path fill="#619E73" stroke-width="0.5" d="m17.231504,19.478483c-0.253559,0.108643 -6.085406,0.203706 -6.154558,0.162965c-0.069152,-0.040741 0.587795,-1.54817 3.181007,-1.588911c2.593213,-0.040741 3.227109,1.317302 2.97355,1.425945l0.000001,0.000001z" id="svg_59" stroke="#000"/>
   <line fill="none" stroke-width="0.5" x1="14.223377" y1="19.470024" x2="14.188801" y2="18.60562" id="svg_60" stroke="#000"/>
   <line fill="none" stroke-width="0.5" x1="15.537272" y1="19.470024" x2="15.537272" y2="18.951382" id="svg_61" stroke="#000"/>
   <line fill="none" stroke-width="0.5" x1="12.805754" y1="19.573753" x2="12.805754" y2="18.951382" id="svg_62" stroke="#000"/>
  </g>
  <path fill="#D38344" stroke-width="0.5" d="m4.602122,25.531479c1.711987,-5.371257 3.974048,-7.175099 5.53878,-8.130802c1.564732,-0.955703 5.035254,-1.576883 4.531729,-1.330495c-0.503525,0.246388 -2.384474,0.479874 -5.270793,4.650281c-2.886318,4.170408 -0.672586,6.607851 -0.769211,6.826744" id="svg_42" stroke="#000"/>
  <line fill="none" stroke-width="0.5" x1="7.975096" y1="20.965496" x2="8.787145" y2="21.527684" id="svg_64" stroke="#000"/>
  <line fill="none" stroke-width="0.5" x1="8.787114" y1="19.841059" x2="9.474233" y2="20.340781" id="svg_65" stroke="#000"/>
  <line stroke="#000" fill="none" stroke-width="0.5" x1="7.350473" y1="22.048147" x2="8.35004" y2="22.714524" id="svg_66"/>
  <ellipse ry="0.156239" rx="0.156239" id="svg_6" cy="26.434125" cx="10.813138" stroke-width="0.3" stroke="#000"/>
  <ellipse ry="0.156239" rx="0.156239" id="svg_11" cy="29.246429" cx="10.06319" stroke-width="0.3" stroke="#000"/>
  <ellipse stroke="#000" ry="0.156239" rx="0.156239" id="svg_15" cy="29.558908" cx="13.125477" stroke-width="0.3"/>
  <ellipse ry="0.156239" rx="0.156239" id="svg_16" cy="32.808682" cx="15.062843" stroke-width="0.3" stroke="#000"/>
  <ellipse ry="0.156239" rx="0.156239" id="svg_17" cy="35.558491" cx="15.312826" stroke-width="0.3" stroke="#000"/>
  <ellipse ry="0.156239" rx="0.156239" id="svg_18" cy="31.996239" cx="12.750503" stroke-width="0.3" stroke="#000"/>
</svg>